<svg xmlns="http://www.w3.org/2000/svg" viewBox="0 0 720 402" width="720" height="402" role="img" aria-labelledby="t d" font-family="'Space Grotesk', 'Inter', system-ui, -apple-system, 'Segoe UI', sans-serif" font-size="12">
<title id="t">Most common EU Annex III restricted ingredients</title><desc id="d">Share of 19,764 products; restricted = permitted under conditions</desc>
<rect width="720" height="402" fill="#0A0B0E"/>
<text x="20" y="26" font-size="15" font-weight="600" fill="#F8FAFC">Most common EU Annex III restricted ingredients</text>
<text x="20" y="44" font-size="12" fill="#94A3B8">Share of 19,764 products; restricted = permitted under conditions</text>
<line x1="222" y1="56" x2="222" y2="362" stroke="#232838" stroke-width="1"/>
<g><title>LIMONENE: 27.1%</title><rect x="0" y="62" width="720" height="30" fill="transparent"/><path d="M222 68.0 h394.0 a4 4 0 0 1 4 4 v10 a4 4 0 0 1 -4 4 h-394.0 z" fill="#38BDF8"/><text x="212" y="81.0" text-anchor="end" fill="#F8FAFC">LIMONENE</text><text x="628.0" y="81.0" fill="#94A3B8" font-family="'JetBrains Mono', ui-monospace, Menlo, Consolas, monospace" font-size="11">27.1%</text></g>
<g><title>LINALOOL: 26.6%</title><rect x="0" y="92" width="720" height="30" fill="transparent"/><path d="M222 98.0 h386.3 a4 4 0 0 1 4 4 v10 a4 4 0 0 1 -4 4 h-386.3 z" fill="#38BDF8"/><text x="212" y="111.0" text-anchor="end" fill="#F8FAFC">LINALOOL</text><text x="620.3" y="111.0" fill="#94A3B8" font-family="'JetBrains Mono', ui-monospace, Menlo, Consolas, monospace" font-size="11">26.6%</text></g>
<g><title>SODIUM HYDROXIDE: 18.8%</title><rect x="0" y="122" width="720" height="30" fill="transparent"/><path d="M222 128.0 h272.1 a4 4 0 0 1 4 4 v10 a4 4 0 0 1 -4 4 h-272.1 z" fill="#38BDF8"/><text x="212" y="141.0" text-anchor="end" fill="#F8FAFC">SODIUM HYDROXIDE</text><text x="506.1" y="141.0" fill="#94A3B8" font-family="'JetBrains Mono', ui-monospace, Menlo, Consolas, monospace" font-size="11">18.8%</text></g>
<g><title>BENZYL ALCOHOL: 15.2%</title><rect x="0" y="152" width="720" height="30" fill="transparent"/><path d="M222 158.0 h219.3 a4 4 0 0 1 4 4 v10 a4 4 0 0 1 -4 4 h-219.3 z" fill="#38BDF8"/><text x="212" y="171.0" text-anchor="end" fill="#F8FAFC">BENZYL ALCOHOL</text><text x="453.3" y="171.0" fill="#94A3B8" font-family="'JetBrains Mono', ui-monospace, Menlo, Consolas, monospace" font-size="11">15.2%</text></g>
<g><title>CITRONELLOL: 13.5%</title><rect x="0" y="182" width="720" height="30" fill="transparent"/><path d="M222 188.0 h194.6 a4 4 0 0 1 4 4 v10 a4 4 0 0 1 -4 4 h-194.6 z" fill="#38BDF8"/><text x="212" y="201.0" text-anchor="end" fill="#F8FAFC">CITRONELLOL</text><text x="428.6" y="201.0" fill="#94A3B8" font-family="'JetBrains Mono', ui-monospace, Menlo, Consolas, monospace" font-size="11">13.5%</text></g>
<g><title>HEXYL CINNAMAL: 11.9%</title><rect x="0" y="212" width="720" height="30" fill="transparent"/><path d="M222 218.0 h170.3 a4 4 0 0 1 4 4 v10 a4 4 0 0 1 -4 4 h-170.3 z" fill="#38BDF8"/><text x="212" y="231.0" text-anchor="end" fill="#F8FAFC">HEXYL CINNAMAL</text><text x="404.3" y="231.0" fill="#94A3B8" font-family="'JetBrains Mono', ui-monospace, Menlo, Consolas, monospace" font-size="11">11.9%</text></g>
<g><title>GERANIOL: 11.8%</title><rect x="0" y="242" width="720" height="30" fill="transparent"/><path d="M222 248.0 h169.6 a4 4 0 0 1 4 4 v10 a4 4 0 0 1 -4 4 h-169.6 z" fill="#38BDF8"/><text x="212" y="261.0" text-anchor="end" fill="#F8FAFC">GERANIOL</text><text x="403.6" y="261.0" fill="#94A3B8" font-family="'JetBrains Mono', ui-monospace, Menlo, Consolas, monospace" font-size="11">11.8%</text></g>
<g><title>BENZYL SALICYLATE: 8.3%</title><rect x="0" y="272" width="720" height="30" fill="transparent"/><path d="M222 278.0 h118.6 a4 4 0 0 1 4 4 v10 a4 4 0 0 1 -4 4 h-118.6 z" fill="#38BDF8"/><text x="212" y="291.0" text-anchor="end" fill="#F8FAFC">BENZYL SALICYLATE</text><text x="352.6" y="291.0" fill="#94A3B8" font-family="'JetBrains Mono', ui-monospace, Menlo, Consolas, monospace" font-size="11">8.3%</text></g>
<g><title>COUMARIN: 8.1%</title><rect x="0" y="302" width="720" height="30" fill="transparent"/><path d="M222 308.0 h115.2 a4 4 0 0 1 4 4 v10 a4 4 0 0 1 -4 4 h-115.2 z" fill="#38BDF8"/><text x="212" y="321.0" text-anchor="end" fill="#F8FAFC">COUMARIN</text><text x="349.2" y="321.0" fill="#94A3B8" font-family="'JetBrains Mono', ui-monospace, Menlo, Consolas, monospace" font-size="11">8.1%</text></g>
<g><title>CITRAL: 7.3%</title><rect x="0" y="332" width="720" height="30" fill="transparent"/><path d="M222 338.0 h103.4 a4 4 0 0 1 4 4 v10 a4 4 0 0 1 -4 4 h-103.4 z" fill="#38BDF8"/><text x="212" y="351.0" text-anchor="end" fill="#F8FAFC">CITRAL</text><text x="337.4" y="351.0" fill="#94A3B8" font-family="'JetBrains Mono', ui-monospace, Menlo, Consolas, monospace" font-size="11">7.3%</text></g>
<text x="20" y="390" font-size="11" fill="#94A3B8">Source: INCIDB, incidb.dataengineered.io/stats · snapshot 2026-09-27 · product data © Open Beauty Facts contributors (ODbL) · CC BY 4.0</text>
</svg>
