<svg xmlns="http://www.w3.org/2000/svg" viewBox="0 0 720 552" width="720" height="552" role="img" aria-labelledby="t-top-ingredients d-top-ingredients" font-family="'Space Grotesk', 'Inter', system-ui, -apple-system, 'Segoe UI', sans-serif" font-size="12">
<title id="t-top-ingredients">The most common cosmetic ingredients</title><desc id="d-top-ingredients">Share of 19,764 products listing each INCI name</desc>
<rect width="720" height="552" fill="#0A0B0E"/>
<text x="20" y="26" font-size="15" font-weight="600" fill="#F8FAFC">The most common cosmetic ingredients</text>
<text x="20" y="44" font-size="12" fill="#94A3B8">Share of 19,764 products listing each INCI name</text>
<line x1="242" y1="56" x2="242" y2="512" stroke="#232838" stroke-width="1"/>
<g><title>Aqua / Water: 71.7%</title><rect x="0" y="62" width="720" height="30" fill="transparent"/><path d="M242 68.0 h374.0 a4 4 0 0 1 4 4 v10 a4 4 0 0 1 -4 4 h-374.0 z" fill="#38BDF8"/><text x="232" y="81.0" text-anchor="end" fill="#F8FAFC">Aqua / Water</text><text x="628.0" y="81.0" fill="#94A3B8" font-family="'JetBrains Mono', ui-monospace, Menlo, Consolas, monospace" font-size="11">71.7%</text></g>
<g><title>PARFUM: 51.2%</title><rect x="0" y="92" width="720" height="30" fill="transparent"/><path d="M242 98.0 h265.8 a4 4 0 0 1 4 4 v10 a4 4 0 0 1 -4 4 h-265.8 z" fill="#38BDF8"/><text x="232" y="111.0" text-anchor="end" fill="#F8FAFC">PARFUM</text><text x="519.8" y="111.0" fill="#94A3B8" font-family="'JetBrains Mono', ui-monospace, Menlo, Consolas, monospace" font-size="11">51.2%</text></g>
<g><title>GLYCERIN: 48.5%</title><rect x="0" y="122" width="720" height="30" fill="transparent"/><path d="M242 128.0 h252.0 a4 4 0 0 1 4 4 v10 a4 4 0 0 1 -4 4 h-252.0 z" fill="#38BDF8"/><text x="232" y="141.0" text-anchor="end" fill="#F8FAFC">GLYCERIN</text><text x="506.0" y="141.0" fill="#94A3B8" font-family="'JetBrains Mono', ui-monospace, Menlo, Consolas, monospace" font-size="11">48.5%</text></g>
<g><title>CITRIC ACID: 34.1%</title><rect x="0" y="152" width="720" height="30" fill="transparent"/><path d="M242 158.0 h176.1 a4 4 0 0 1 4 4 v10 a4 4 0 0 1 -4 4 h-176.1 z" fill="#38BDF8"/><text x="232" y="171.0" text-anchor="end" fill="#F8FAFC">CITRIC ACID</text><text x="430.1" y="171.0" fill="#94A3B8" font-family="'JetBrains Mono', ui-monospace, Menlo, Consolas, monospace" font-size="11">34.1%</text></g>
<g><title>SODIUM BENZOATE: 27.1%</title><rect x="0" y="182" width="720" height="30" fill="transparent"/><path d="M242 188.0 h139.1 a4 4 0 0 1 4 4 v10 a4 4 0 0 1 -4 4 h-139.1 z" fill="#38BDF8"/><text x="232" y="201.0" text-anchor="end" fill="#F8FAFC">SODIUM BENZOATE</text><text x="393.1" y="201.0" fill="#94A3B8" font-family="'JetBrains Mono', ui-monospace, Menlo, Consolas, monospace" font-size="11">27.1%</text></g>
<g><title>LIMONENE: 27.1%</title><rect x="0" y="212" width="720" height="30" fill="transparent"/><path d="M242 218.0 h138.9 a4 4 0 0 1 4 4 v10 a4 4 0 0 1 -4 4 h-138.9 z" fill="#38BDF8"/><text x="232" y="231.0" text-anchor="end" fill="#F8FAFC">LIMONENE</text><text x="392.9" y="231.0" fill="#94A3B8" font-family="'JetBrains Mono', ui-monospace, Menlo, Consolas, monospace" font-size="11">27.1%</text></g>
<g><title>LINALOOL: 26.6%</title><rect x="0" y="242" width="720" height="30" fill="transparent"/><path d="M242 248.0 h136.2 a4 4 0 0 1 4 4 v10 a4 4 0 0 1 -4 4 h-136.2 z" fill="#38BDF8"/><text x="232" y="261.0" text-anchor="end" fill="#F8FAFC">LINALOOL</text><text x="390.2" y="261.0" fill="#94A3B8" font-family="'JetBrains Mono', ui-monospace, Menlo, Consolas, monospace" font-size="11">26.6%</text></g>
<g><title>SODIUM CHLORIDE: 23.4%</title><rect x="0" y="272" width="720" height="30" fill="transparent"/><path d="M242 278.0 h119.1 a4 4 0 0 1 4 4 v10 a4 4 0 0 1 -4 4 h-119.1 z" fill="#38BDF8"/><text x="232" y="291.0" text-anchor="end" fill="#F8FAFC">SODIUM CHLORIDE</text><text x="373.1" y="291.0" fill="#94A3B8" font-family="'JetBrains Mono', ui-monospace, Menlo, Consolas, monospace" font-size="11">23.4%</text></g>
<g><title>PHENOXYETHANOL: 21.3%</title><rect x="0" y="302" width="720" height="30" fill="transparent"/><path d="M242 308.0 h108.4 a4 4 0 0 1 4 4 v10 a4 4 0 0 1 -4 4 h-108.4 z" fill="#38BDF8"/><text x="232" y="321.0" text-anchor="end" fill="#F8FAFC">PHENOXYETHANOL</text><text x="362.4" y="321.0" fill="#94A3B8" font-family="'JetBrains Mono', ui-monospace, Menlo, Consolas, monospace" font-size="11">21.3%</text></g>
<g><title>SODIUM HYDROXIDE: 18.8%</title><rect x="0" y="332" width="720" height="30" fill="transparent"/><path d="M242 338.0 h95.1 a4 4 0 0 1 4 4 v10 a4 4 0 0 1 -4 4 h-95.1 z" fill="#38BDF8"/><text x="232" y="351.0" text-anchor="end" fill="#F8FAFC">SODIUM HYDROXIDE</text><text x="349.1" y="351.0" fill="#94A3B8" font-family="'JetBrains Mono', ui-monospace, Menlo, Consolas, monospace" font-size="11">18.8%</text></g>
<g><title>COCAMIDOPROPYL BETAINE: 17.6%</title><rect x="0" y="362" width="720" height="30" fill="transparent"/><path d="M242 368.0 h88.8 a4 4 0 0 1 4 4 v10 a4 4 0 0 1 -4 4 h-88.8 z" fill="#38BDF8"/><text x="232" y="381.0" text-anchor="end" fill="#F8FAFC">COCAMIDOPROPYL BETAINE</text><text x="342.8" y="381.0" fill="#94A3B8" font-family="'JetBrains Mono', ui-monospace, Menlo, Consolas, monospace" font-size="11">17.6%</text></g>
<g><title>TOCOPHEROL: 17.1%</title><rect x="0" y="392" width="720" height="30" fill="transparent"/><path d="M242 398.0 h86.3 a4 4 0 0 1 4 4 v10 a4 4 0 0 1 -4 4 h-86.3 z" fill="#38BDF8"/><text x="232" y="411.0" text-anchor="end" fill="#F8FAFC">TOCOPHEROL</text><text x="340.3" y="411.0" fill="#94A3B8" font-family="'JetBrains Mono', ui-monospace, Menlo, Consolas, monospace" font-size="11">17.1%</text></g>
<g><title>BENZYL ALCOHOL: 15.2%</title><rect x="0" y="422" width="720" height="30" fill="transparent"/><path d="M242 428.0 h76.2 a4 4 0 0 1 4 4 v10 a4 4 0 0 1 -4 4 h-76.2 z" fill="#38BDF8"/><text x="232" y="441.0" text-anchor="end" fill="#F8FAFC">BENZYL ALCOHOL</text><text x="330.2" y="441.0" fill="#94A3B8" font-family="'JetBrains Mono', ui-monospace, Menlo, Consolas, monospace" font-size="11">15.2%</text></g>
<g><title>SODIUM LAURETH SULFATE: 14.3%</title><rect x="0" y="452" width="720" height="30" fill="transparent"/><path d="M242 458.0 h71.4 a4 4 0 0 1 4 4 v10 a4 4 0 0 1 -4 4 h-71.4 z" fill="#38BDF8"/><text x="232" y="471.0" text-anchor="end" fill="#F8FAFC">SODIUM LAURETH SULFATE</text><text x="325.4" y="471.0" fill="#94A3B8" font-family="'JetBrains Mono', ui-monospace, Menlo, Consolas, monospace" font-size="11">14.3%</text></g>
<g><title>PROPYLENE GLYCOL: 14.2%</title><rect x="0" y="482" width="720" height="30" fill="transparent"/><path d="M242 488.0 h70.6 a4 4 0 0 1 4 4 v10 a4 4 0 0 1 -4 4 h-70.6 z" fill="#38BDF8"/><text x="232" y="501.0" text-anchor="end" fill="#F8FAFC">PROPYLENE GLYCOL</text><text x="324.6" y="501.0" fill="#94A3B8" font-family="'JetBrains Mono', ui-monospace, Menlo, Consolas, monospace" font-size="11">14.2%</text></g>
<text x="20" y="540" font-size="11" fill="#94A3B8">Source: INCIDB, incidb.dataengineered.io/stats · snapshot 2026-09-27 · product data © Open Beauty Facts contributors (ODbL) · CC BY 4.0</text>
</svg>
